<svg xmlns="http://www.w3.org/2000/svg" viewBox="866.8 0 268.4 262.4" role="img" aria-label="הבית לעסקים" xmlns:c2pa="http://c2pa.org/manifest"><metadata><c2pa:manifest>AAAWgmp1bWIAAAAeanVtZGMycGEAEQAQgAAAqgA4m3EDYzJwYQAAABZcanVtYgAAAEdqdW1kYzJtYQARABCAAACqADibcQN1cm46YzJwYTo0Zjc2MDczYy1hYjIyLTRiNjUtOTNiYi1kMGE4MTJhYzQxYmIAAAADl2p1bWIAAAApanVtZGMyYXMAEQAQgAAAqgA4m3EDYzJwYS5hc3NlcnRpb25zAAAAALxqdW1iAAAARGp1bWRjYm9yABEAEIAAAKoAOJtxE2MycGEuaW5ncmVkaWVudC52MwAAAAAYYzJzaFZEeUzjw6XajMnoXT/LUGIAAABwY2JvcqNpZGM6Zm9ybWF0bWltYWdlL3N2Zyt4bWxqaW5zdGFuY2VJRHgseG1wOmlpZDphMmUwOGYzZS1jMTFjLTQ4ZmMtYTg2ZC02ODdjM2Y2MmVlN2FscmVsYXRpb25zaGlwaHBhcmVudE9mAAAB4mp1bWIAAABBanVtZGNib3IAEQAQgAAAqgA4m3ETYzJwYS5hY3Rpb25zLnYyAAAAABhjMnNo5IWA8J1slicbqX5C/QjxYAAAAZljYm9yomdhY3Rpb25zgqJmYWN0aW9ua2MycGEub3BlbmVkanBhcmFtZXRlcnOha2luZ3JlZGllbnRzgaJjdXJseC1zZWxmI2p1bWJmPWMycGEuYXNzZXJ0aW9ucy9jMnBhLmluZ3JlZGllbnQudjNkaGFzaFgg0tnq3aWPoREg96lh7voJnqyMRq1fGoeGzQ/ARVqB0QekZmFjdGlvbngdY29tLmFudGhyb3BpYy5jbGF1ZGUucHJvdmlkZWRqcGFyYW1ldGVyc6F4H2NvbS5hbnRocm9waWMub3JpZ2luLWNvbmZpZGVuY2VndW5rbm93bmtkZXNjcmlwdGlvbnhmQ2xhdWRlIHByb3ZpZGVkIHRoaXMgZmlsZSBhdCB0aGUgcmVxdWVzdCBvZiBhIHVzZXIgYW5kIG1heSBoYXZlIGNyZWF0ZWQgb3IgbW9kaWZpZWQgdGhlIGZpbGUgY29udGVudHMubXNvZnR3YXJlQWdlbnShZG5hbWVmQ2xhdWRlcmFsbEFjdGlvbnNJbmNsdWRlZPUAAADIanVtYgAAAEBqdW1kY2JvcgARABCAAACqADibcRNjMnBhLmhhc2guZGF0YQAAAAAYYzJzaLf8Xa8qbSx2qeU3C5ucw24AAACAY2JvcqVjYWxnZnNoYTI1NmNwYWRNAAAAAAAAAAAAAAAAAGRoYXNoWCDcdoSiOaL7UNGkAm1aYKUd0tPuXibzH5yRrJHFxqFNqGRuYW1lbmp1bWJmIG1hbmlmZXN0amV4Y2x1c2lvbnOBomVzdGFydBizZmxlbmd0aBkeBAAAAj5qdW1iAAAAJ2p1bWRjMmNsABEAEIAAAKoAOJtxA2MycGEuY2xhaW0udjIAAAACD2Nib3KlY2FsZ2ZzaGEyNTZpc2lnbmF0dXJleE1zZWxmI2p1bWJmPS9jMnBhL3VybjpjMnBhOjRmNzYwNzNjLWFiMjItNGI2NS05M2JiLWQwYTgxMmFjNDFiYi9jMnBhLnNpZ25hdHVyZWppbnN0YW5jZUlEeCx4bXA6aWlkOjJkZmQ4YTBjLWE3NzItNDdmMi04MzUzLWFjODVjYzAwNTcyOHJjcmVhdGVkX2Fzc2VydGlvbnODomN1cmx4LXNlbGYjanVtYmY9YzJwYS5hc3NlcnRpb25zL2MycGEuaW5ncmVkaWVudC52M2RoYXNoWCDS2erdpY+hESD3qWHu+gmerIxGrV8ah4bND8BFWoHRB6JjdXJseCpzZWxmI2p1bWJmPWMycGEuYXNzZXJ0aW9ucy9jMnBhLmFjdGlvbnMudjJkaGFzaFggaBf33Soya7T3prYdWQUPR2oo2N6EtA3bLaDrcmcpk2uiY3VybHgpc2VsZiNqdW1iZj1jMnBhLmFzc2VydGlvbnMvYzJwYS5oYXNoLmRhdGFkaGFzaFgg7vOa0hKXLvmUI1fJkWCAQ82R4OIrIvbD1CCva9Wo+w50Y2xhaW1fZ2VuZXJhdG9yX2luZm+jZG5hbWVvQW50aHJvcGljIEZpbGVzZ3ZlcnNpb25lMS4wLjBrc3BlY1ZlcnNpb25lMi40LjAAABA4anVtYgAAAChqdW1kYzJjcwARABCAAACqADibcQNjMnBhLnNpZ25hdHVyZQAAABAIY2JvctKEWQISogEmGCFZAgowggIGMIIBjaADAgECAhRA5aAK7sI50L64g/oGQgU9Z1UTADAKBggqhkjOPQQDAzBJMRcwFQYDVQQKEw5BbnRocm9waWMsIFBCQzEuMCwGA1UEAxMlQW50aHJvcGljIENvbnRlbnQgQ3JlZGVudGlhbHMgUm9vdCBDQTAeFw0yNjA4MDcxODQzNTZaFw0yODA4MDYxOTQzNTZaMEQxFzAVBgNVBAoTDkFudGhyb3BpYywgUEJDMSkwJwYDVQQDEyBBbnRocm9waWMgQ2xhdWRlIENvbnRlbnQgU2lnbmluZzBZMBMGByqGSM49AgEGCCqGSM49AwEHA0IABJh6CmvLUBgFFNU0vUKlOVtE6djd17L5SuwX0LemFisBM3dkd/3cyjxFA3Qo5S46fX0/ihY0VZ7mfb9KF703t5OjWDBWMA4GA1UdDwEB/wQEAwIHgDAVBgNVHSUEDjAMBgorBgEEAYPoXgIBMAwGA1UdEwEB/wQCMAAwHwYDVR0jBBgwFoAUzlHiBIFOZFsj+OPEz5o+nMHXXMIwCgYIKoZIzj0EAwMDZwAwZAIwMXMdFJ4BetLLVY7ORuE9noqbbAZOZn/aArXyTwFAZfKrPzxF2vPoJNf1+UCdg1XGAjBwX1zd9WGqYkqmL5SFqw1QySjr1zJfpJM9+1rdDwSPLMOPOjKuiXjoU/pUUeG9RwmhY3BhZFkNngAAAAAAAAAAAAAAAAAAAAAAAAAAAAAAAAAAAAAAAAAAAAAAAAAAAAAAAAAAAAAAAAAAAAAAAAAAAAAAAAAAAAAAAAAAAAAAAAAAAAAAAAAAAAAAAAAAAAAAAAAAAAAAAAAAAAAAAAAAAAAAAAAAAAAAAAAAAAAAAAAAAAAAAAAAAAAAAAAAAAAAAAAAAAAAAAAAAAAAAAAAAAAAAAAAAAAAAAAAAAAAAAAAAAAAAAAAAAAAAAAAAAAAAAAAAAAAAAAAAAAAAAAAAAAAAAAAAAAAAAAAAAAAAAAAAAAAAAAAAAAAAAAAAAAAAAAAAAAAAAAAAAAAAAAAAAAAAAAAAAAAAAAAAAAAAAAAAAAAAAAAAAAAAAAAAAAAAAAAAAAAAAAAAAAAAAAAAAAAAAAAAAAAAAAAAAAAAAAAAAAAAAAAAAAAAAAAAAAAAAAAAAAAAAAAAAAAAAAAAAAAAAAAAAAAAAAAAAAAAAAAAAAAAAAAAAAAAAAAAAAAAAAAAAAAAAAAAAAAAAAAAAAAAAAAAAAAAAAAAAAAAAAAAAAAAAAAAAAAAAAAAAAAAAAAAAAAAAAAAAAAAAAAAAAAAAAAAAAAAAAAAAAAAAAAAAAAAAAAAAAAAAAAAAAAAAAAAAAAAAAAAAAAAAAAAAAAAAAAAAAAAAAAAAAAAAAAAAAAAAAAAAAAAAAAAAAAAAAAAAAAAAAAAAAAAAAAAAAAAAAAAAAAAAAAAAAAAAAAAAAAAAAAAAAAAAAAAAAAAAAAAAAAAAAAAAAAAAAAAAAAAAAAAAAAAAAAAAAAAAAAAAAAAAAAAAAAAAAAAAAAAAAAAAAAAAAAAAAAAAAAAAAAAAAAAAAAAAAAAAAAAAAAAAAAAAAAAAAAAAAAAAAAAAAAAAAAAAAAAAAAAAAAAAAAAAAAAAAAAAAAAAAAAAAAAAAAAAAAAAAAAAAAAAAAAAAAAAAAAAAAAAAAAAAAAAAAAAAAAAAAAAAAAAAAAAAAAAAAAAAAAAAAAAAAAAAAAAAAAAAAAAAAAAAAAAAAAAAAAAAAAAAAAAAAAAAAAAAAAAAAAAAAAAAAAAAAAAAAAAAAAAAAAAAAAAAAAAAAAAAAAAAAAAAAAAAAAAAAAAAAAAAAAAAAAAAAAAAAAAAAAAAAAAAAAAAAAAAAAAAAAAAAAAAAAAAAAAAAAAAAAAAAAAAAAAAAAAAAAAAAAAAAAAAAAAAAAAAAAAAAAAAAAAAAAAAAAAAAAAAAAAAAAAAAAAAAAAAAAAAAAAAAAAAAAAAAAAAAAAAAAAAAAAAAAAAAAAAAAAAAAAAAAAAAAAAAAAAAAAAAAAAAAAAAAAAAAAAAAAAAAAAAAAAAAAAAAAAAAAAAAAAAAAAAAAAAAAAAAAAAAAAAAAAAAAAAAAAAAAAAAAAAAAAAAAAAAAAAAAAAAAAAAAAAAAAAAAAAAAAAAAAAAAAAAAAAAAAAAAAAAAAAAAAAAAAAAAAAAAAAAAAAAAAAAAAAAAAAAAAAAAAAAAAAAAAAAAAAAAAAAAAAAAAAAAAAAAAAAAAAAAAAAAAAAAAAAAAAAAAAAAAAAAAAAAAAAAAAAAAAAAAAAAAAAAAAAAAAAAAAAAAAAAAAAAAAAAAAAAAAAAAAAAAAAAAAAAAAAAAAAAAAAAAAAAAAAAAAAAAAAAAAAAAAAAAAAAAAAAAAAAAAAAAAAAAAAAAAAAAAAAAAAAAAAAAAAAAAAAAAAAAAAAAAAAAAAAAAAAAAAAAAAAAAAAAAAAAAAAAAAAAAAAAAAAAAAAAAAAAAAAAAAAAAAAAAAAAAAAAAAAAAAAAAAAAAAAAAAAAAAAAAAAAAAAAAAAAAAAAAAAAAAAAAAAAAAAAAAAAAAAAAAAAAAAAAAAAAAAAAAAAAAAAAAAAAAAAAAAAAAAAAAAAAAAAAAAAAAAAAAAAAAAAAAAAAAAAAAAAAAAAAAAAAAAAAAAAAAAAAAAAAAAAAAAAAAAAAAAAAAAAAAAAAAAAAAAAAAAAAAAAAAAAAAAAAAAAAAAAAAAAAAAAAAAAAAAAAAAAAAAAAAAAAAAAAAAAAAAAAAAAAAAAAAAAAAAAAAAAAAAAAAAAAAAAAAAAAAAAAAAAAAAAAAAAAAAAAAAAAAAAAAAAAAAAAAAAAAAAAAAAAAAAAAAAAAAAAAAAAAAAAAAAAAAAAAAAAAAAAAAAAAAAAAAAAAAAAAAAAAAAAAAAAAAAAAAAAAAAAAAAAAAAAAAAAAAAAAAAAAAAAAAAAAAAAAAAAAAAAAAAAAAAAAAAAAAAAAAAAAAAAAAAAAAAAAAAAAAAAAAAAAAAAAAAAAAAAAAAAAAAAAAAAAAAAAAAAAAAAAAAAAAAAAAAAAAAAAAAAAAAAAAAAAAAAAAAAAAAAAAAAAAAAAAAAAAAAAAAAAAAAAAAAAAAAAAAAAAAAAAAAAAAAAAAAAAAAAAAAAAAAAAAAAAAAAAAAAAAAAAAAAAAAAAAAAAAAAAAAAAAAAAAAAAAAAAAAAAAAAAAAAAAAAAAAAAAAAAAAAAAAAAAAAAAAAAAAAAAAAAAAAAAAAAAAAAAAAAAAAAAAAAAAAAAAAAAAAAAAAAAAAAAAAAAAAAAAAAAAAAAAAAAAAAAAAAAAAAAAAAAAAAAAAAAAAAAAAAAAAAAAAAAAAAAAAAAAAAAAAAAAAAAAAAAAAAAAAAAAAAAAAAAAAAAAAAAAAAAAAAAAAAAAAAAAAAAAAAAAAAAAAAAAAAAAAAAAAAAAAAAAAAAAAAAAAAAAAAAAAAAAAAAAAAAAAAAAAAAAAAAAAAAAAAAAAAAAAAAAAAAAAAAAAAAAAAAAAAAAAAAAAAAAAAAAAAAAAAAAAAAAAAAAAAAAAAAAAAAAAAAAAAAAAAAAAAAAAAAAAAAAAAAAAAAAAAAAAAAAAAAAAAAAAAAAAAAAAAAAAAAAAAAAAAAAAAAAAAAAAAAAAAAAAAAAAAAAAAAAAAAAAAAAAAAAAAAAAAAAAAAAAAAAAAAAAAAAAAAAAAAAAAAAAAAAAAAAAAAAAAAAAAAAAAAAAAAAAAAAAAAAAAAAAAAAAAAAAAAAAAAAAAAAAAAAAAAAAAAAAAAAAAAAAAAAAAAAAAAAAAAAAAAAAAAAAAAAAAAAAAAAAAAAAAAAAAAAAAAAAAAAAAAAAAAAAAAAAAAAAAAAAAAAAAAAAAAAAAAAAAAAAAAAAAAAAAAAAAAAAAAAAAAAAAAAAAAAAAAAAAAAAAAAAAAAAAAAAAAAAAAAAAAAAAAAAAAAAAAAAAAAAAAAAAAAAAAAAAAAAAAAAAAAAAAAAAAAAAAAAAAAAAAAAAAAAAAAAAAAAAAAAAAAAAAAAAAAAAAAAAAAAAAAAAAAAAAAAAAAAAAAAAAAAAAAAAAAAAAAAAAAAAAAAAAAAAAAAAAAAAAAAAAAAAAAAAAAAAAAAAAAAAAAAAAAAAAAAAAAAAAAAAAAAAAAAAAAAAAAAAAAAAAAAAAAAAAAAAAAAAAAAAAAAAAAAAAAAAAAAAAAAAAAAAAAAAAAAAAAAAAAAAAAAAAAAAAAAAAAAAAAAAAAAAAAAAAAAAAAAAAAAAAAAAAAAAAAAAAAAAAAAAAAAAAAAAAAAAAAAAAAAAAAAAAAAAAAAAAAAAAAAAAAAAAAAAAAAAAAAAAAAAAAAAAAAAAAAAAAAAAAAAAAAAAAAAAAAAAAAAAAAAAAAAAAAAAAAAAAAAAAAAAAAAAAAAAAAAAAAAAAAAAAAAAAAAAAAAAAAAAAAAAAAAAAAAAAAAAAAAAAAAAAAAAAAAAAAAAAAAAAAAAAAAAAAAAAAAAAAAAAAAAAAAAAAAAAAAAAAAAAAAAAAAAAAAAAAAAAAAAAAAAAAAAAAAAAAAAAAAAAAAAAAAAAAAAAAAAAAAAAAAAAAAAAAAAAAAAAAAAAAAAAAAAAAAAAAAAAAAAAAAAAAAAAAAAAAAAAAAAAAAAAAAAAAAAAAAAAAAAAAAAAAAAAAAAAAAAAAAAAAAAAAAAAAAAAAAAAAAAAAAAAAAAAAAAAAAAAAAAAAAAAAAAAAAAAAAAAAAAAAAAAAAAAAAAAAAAAAAAAAAAAAAAAAAAAAAAAAAAAAAAAAAAAAAAAAAAAAAAAAAAAAAAAAAAAAAAAAAAAAAAAAAAAAAAAAAAAAAAAAAAAAAAAAAAAAAAAAAAAAAAAAAAAAAAAAAAAAAAAAAAAAAAAAAAAAAAAAAAAAAAAAAAAAAAAAAAAAAAAAAAAAAAAAAAAAAAAAAAAAAAAAAAAAAAAAAAAAAAAAAAAAAAAAAAAAAAAAAAAAAAAAAAAAAAAAAAAAAAAAAAAAAAAAAAAAAAAAAAAAAAAAAAAAAAAAAAAAAAAAAAAAAAAAAAAAAAAAAAAAAAAAAAAAAAAAAAAAAAAAAAAAAAAAAAAAAAAAAAAAAAAAAAAAAAAAAAAAAAAAAAAAAAAAAAAAAAAAAAAAAAAAAAAAAAAAAAAAAAAAAAAAAAAAAAAAAAAAAAAAAAAAAAAAAAAAAAAAAAAAAAAAAAAAAAAAAAAAAAAAAAAAAAAAAAAAAAAAAAAAAAAAAAAAAAAAAAAAAAAAAAAAAAAAAAAAAAAAAAAAAAAAAAAAAAAAAAAAAAAAAAAAAAAAAAAAAAAAAAAAAAAAAAAAAAAAAAAAAAAAPZYQFQv+p2kuA7DZbOOGyhHTghcKNV7l3mGsSuiuaqaW42kvt9zkKRflNVxHRqN/GmtFATWgs+ZngYPmoxXWsewuCI=</c2pa:manifest></metadata><path fill="#FFFFFF" d="M1135.16 222.88c0 21.77-17.71 39.48-39.48 39.48H906.29c-21.77 0-39.48-17.71-39.48-39.48v-63.44c7.8 3.94 15.85 8 24.2 12.1l21.34 12.98c-3.51 8.11-.73 17.87 6.83 22.76.02.02.09.06.12.08 2.12 1.38 4.45 2.28 6.87 2.7.27 5.72 3.21 11.18 8.39 14.53.02 0 .09.06.1.07 3.03 1.96 6.46 2.97 9.97 2.97 1.31 0 2.65-.14 3.96-.44 1.44 2.81 3.6 5.29 6.42 7.11l.11.07a18.68 18.68 0 0 0 14.4 2.54c.83-.19 1.64-.43 2.43-.73 1.33 1.93 3.06 3.63 5.14 4.98 3.03 1.96 6.47 2.97 9.98 2.97q2.025 0 4.05-.45c3.72-.83 7.01-2.74 9.52-5.48l10.92 6.64c3.21 1.95 6.79 2.89 10.33 2.89 5.92 0 11.75-2.63 15.65-7.56 2.23-2.82 3.6-6.1 4.09-9.56 4.61-.42 9.06-2.54 12.29-6.27 2.11-2.44 3.51-5.31 4.14-8.37 4.95-.12 9.84-2.15 13.39-6.01 2.47-2.7 4.07-6.06 4.66-9.62 4.56-.45 8.96-2.57 12.19-6.28 3.36-3.85 4.99-8.98 4.47-14.06-.14-1.36-.44-2.69-.86-3.97 13.75-6.66 28.15-12.42 43.26-15.13v61.99Zm-201.27-44.83a3.42 3.42 0 0 1 2.21-1.53c.18-.04.43-.08.72-.08.54 0 1.22.13 1.91.59a3.427 3.427 0 0 1 1 4.68l-7.49 11.99a3.4 3.4 0 0 1-2.18 1.53c-.52.12-1.56.22-2.54-.41a.5.5 0 0 0-.12-.08 3.464 3.464 0 0 1-1.04-4.73zm27.47 3.7a3.5 3.5 0 0 1 1.57 2.13c.12.52.24 1.55-.41 2.61l-14.9 24.48a3.42 3.42 0 0 1-2.18 1.56c-.52.12-1.57.22-2.59-.44a1 1 0 0 0-.1-.06c-1.58-1.02-2.04-3.08-1.06-4.69l14.96-24.44c.98-1.6 3.1-2.12 4.71-1.15m18.91 12.51a3.764 3.764 0 0 1 1.19 5.17l-9.95 16.31-.39.65-2.55 4.17c-.72 1.2-1.81 1.6-2.39 1.73-.59.13-1.74.24-2.91-.51l-.11-.07c-1.72-1.12-2.24-3.44-1.17-5.19l13-21.06a3.78 3.78 0 0 1 2.39-1.71c.22-.05.51-.1.85-.1.59 0 1.31.14 2.04.61m17.26 21.25-7.5 11.99a3.44 3.44 0 0 1-2.17 1.54c-.52.11-1.56.21-2.66-.5-1.55-1-2.02-3.07-1.08-4.65l.25-.41 7.32-11.63a3.43 3.43 0 0 1 2.2-1.53c.53-.11 1.58-.2 2.63.51 1.56 1.04 2 3.1 1.01 4.68m12.72 7.95c1.82-2.91 2.74-6.13 2.82-9.32.48.81 1.12 1.56 1.92 2.17l1.33 1.02c.35.4.74.78 1.18 1.11l8.07 6.09a4.91 4.91 0 0 1 .21 6.34 4.925 4.925 0 0 1-6.42 1.15l-10.47-6.37 1.37-2.2ZM944.13 96.45c-6.2 3.61-22.54-1.72-29.52-4l-.3-.1a97.7 97.7 0 0 1-24.81-12.24c1.82-1.35 3.74-2.6 5.74-3.73l.3-.16 78.21-54.19c16.83-9.38 37.64-9.38 54.48 0l77.92 53.99.58.36q2.52 1.425 4.86 3.09a86.3 86.3 0 0 1-20.3 11.92c-15.34 6.4-26.66 7.91-33.69 4.47l-24.94-12.04a47.9 47.9 0 0 0-37.36-1.84l-2.64-.84a34.2 34.2 0 0 0-27.55 3.06zm191.03 49.17c-18.96 2.99-36.64 10.33-53.35 18.63l-63.7-48.34s-.04-.02-.05-.04c-.13-.1-.27-.2-.41-.28l-.09-.06c-.09-.06-.19-.11-.28-.16-.07-.04-.14-.08-.2-.12-.03-.02-.07-.03-.1-.05-.11-.05-.21-.1-.32-.15h-.03a.5.5 0 0 0-.11-.04c-.16-.07-.31-.13-.47-.19l-.14-.05h-.01l-4.61-1.69c-9.11-3.31-19.15-1.23-26.2 5.42l-15.32 14.48s-.06.05-.08.08c-2.63 2.55-6.65 3.17-9.91 1.56l10.16-19.93a7.8 7.8 0 0 1 3.04-3.23l22.28-12.93c1.02-.6 2.08-1.13 3.14-1.61h.02c.05-.02.1-.04.14-.06.02 0 .03 0 .05-.02a32.89 32.89 0 0 1 27.54.52l24.91 12.02c11.2 5.47 26.26 4.13 46.03-4.11 9.28-3.87 17.91-9.09 25.55-15.41 3.89-3.21 7.52-6.7 10.83-10.44-3.2-3.82-6.82-7.31-10.82-10.4a70 70 0 0 0-8.21-5.49L1036.5 9.52l-.58-.36c-21.54-12.17-48.29-12.17-69.82 0l-.3.17-78.22 54.2a69.8 69.8 0 0 0-13.43 9.96h-.01a63 63 0 0 0-3.63 3.7v.02c-.23.49-.39.99-.49 1.51-.56 2.61.31 5.44 2.5 7.29 1.97 1.66 4 3.26 6.11 4.79 9.36 6.8 19.97 12.22 31.06 15.84l.29.1c7.41 2.41 18.13 5.92 28.02 5.92 4.96 0 9.71-.88 13.72-3.23l5.99-3.5c-.41.63-.79 1.29-1.13 1.96l-10.37 20.36a14.474 14.474 0 0 0 5.82 19.24c3.6 2.03 7.58 3.01 11.55 3.01 6.04 0 12.02-2.28 16.53-6.64l15.29-14.44c2.9-2.74 7.02-3.59 10.77-2.23l3.79 1.38h.01l66.26 50.28.03.03c.01 0 .02.01.03.02.02.01.03.02.05.04l.14.11c1.07.82 1.33 1.91 1.38 2.48.06.57.02 1.69-.86 2.71a3.58 3.58 0 0 1-4.9.47l-14-10.97-12.42-9.84a7.504 7.504 0 0 0-10.54 1.22 7.504 7.504 0 0 0 1.22 10.54l12.49 9.9h.02l11.11 8.82c1.12.88 1.36 2.04 1.41 2.65s-.02 1.79-.98 2.83c-1.31 1.43-3.54 1.62-5.07.43l-17.83-13.86-2.34-1.91c-3.21-2.62-7.93-2.15-10.55 1.06s-2.15 7.93 1.06 10.55l16.49 13.48a3.45 3.45 0 0 1 1.26 2.39c.05.54 0 1.61-.84 2.57a3.477 3.477 0 0 1-4.71.5l-2.55-1.93c-.41-.38-.84-.74-1.28-1.09l-9.92-7.6a7.504 7.504 0 0 0-11.81 4c-1.18-3.96-3.7-7.53-7.42-10.03-2.46-1.65-5.2-2.67-8.04-3.02-.62-5.44-3.57-10.58-8.47-13.72-3.43-2.21-7.38-3.22-11.37-2.95-1.4-4.1-4.16-7.53-7.92-9.79a18.25 18.25 0 0 0-9.45-2.63c-2.94 0-5.85.7-8.46 2.05-1.13-1.41-2.5-2.67-4.09-3.74-4.17-2.81-9.18-3.78-14.1-2.74s-9.11 3.96-11.79 8.21l-1.04 1.66-21.64-13.16q-.3-.18-.6-.33c-9.32-4.57-18.29-9.11-26.97-13.5-1.37-.7-2.75-1.39-4.14-2.1-4.9-2.48-9.89-4.99-15-7.53v87.79c0 30.04 24.44 54.48 54.48 54.48h189.39c30.04 0 54.48-24.44 54.48-54.48v-78.65c-5.09.13-10.09.62-15 1.39"></path>
  </svg>